<svg width="1600" height="1000" viewBox="0 0 1600 1000" xmlns="http://www.w3.org/2000/svg">
  <defs>
    <linearGradient id="fade" x1="0" y1="0" x2="1" y2="0">
      <stop offset="0%" stop-color="currentColor" stop-opacity="0.14" />
      <stop offset="55%" stop-color="currentColor" stop-opacity="0.07" />
      <stop offset="100%" stop-color="currentColor" stop-opacity="0" />
    </linearGradient>
  </defs>

  <g fill="none" stroke="currentColor" stroke-width="1" opacity="0.9">
    <polygon points="0,0 260,40 120,220 0,260" />
    <polygon points="260,40 480,0 420,190 120,220" />
    <polygon points="120,220 420,190 320,420 60,440" />
    <polygon points="420,190 480,0 620,120 560,340 320,420" />
    <polygon points="0,260 120,220 60,440 0,520" />
    <polygon points="60,440 320,420 260,620 40,660" />
    <polygon points="320,420 560,340 540,560 260,620" />
    <polygon points="0,520 60,440 40,660 0,720" />
    <polygon points="40,660 260,620 220,820 0,860 0,720" />
    <polygon points="260,620 540,560 500,780 220,820" />
  </g>

  <g fill="currentColor" opacity="0.55">
    <circle cx="260" cy="40" r="3.5" />
    <circle cx="120" cy="220" r="3.5" />
    <circle cx="420" cy="190" r="3.5" />
    <circle cx="320" cy="420" r="3.5" />
    <circle cx="560" cy="340" r="3.5" />
    <circle cx="260" cy="620" r="3.5" />
    <circle cx="540" cy="560" r="3.5" />
    <circle cx="220" cy="820" r="3.5" />
  </g>

  <g stroke="currentColor" stroke-width="2" fill="none" opacity="0.8">
    <path d="M 980 160 h 90 l 40 -40 h 120" />
    <path d="M 1010 260 h 150 l 30 30 h 140" />
    <path d="M 960 340 h 60 l 30 -30 h 200 l 30 30 h 100" />
    <path d="M 1040 460 h 200 l 30 30 h 130" />
    <path d="M 1000 560 h 110 l 40 40 h 260" />
    <path d="M 1080 660 h 160 l 30 -30 h 150" />
    <path d="M 990 760 h 90 l 30 30 h 260" />
    <path d="M 1060 860 h 220 l 30 -30 h 120" />
  </g>

  <g fill="currentColor" opacity="0.75">
    <circle cx="980" cy="160" r="4" />
    <circle cx="1010" cy="260" r="4" />
    <circle cx="960" cy="340" r="4" />
    <circle cx="1040" cy="460" r="4" />
    <circle cx="1000" cy="560" r="4" />
    <circle cx="1080" cy="660" r="4" />
    <circle cx="990" cy="760" r="4" />
    <circle cx="1060" cy="860" r="4" />
  </g>

  <g fill="currentColor" opacity="0.6">
    <polygon points="1230,150 1190,180 1230,210" />
    <polygon points="1270,150 1230,180 1270,210" />
    <polygon points="1310,150 1270,180 1310,210" />

    <polygon points="1250,380 1210,410 1250,440" />
    <polygon points="1290,380 1250,410 1290,440" />

    <polygon points="1120,600 1080,630 1120,660" />
    <polygon points="1160,600 1120,630 1160,660" />
    <polygon points="1200,600 1160,630 1200,660" />

    <polygon points="1300,720 1260,750 1300,780" />
    <polygon points="1340,720 1300,750 1340,780" />

    <polygon points="1180,860 1140,890 1180,920" />
    <polygon points="1220,860 1180,890 1220,920" />
  </g>

  <g fill="none" stroke="currentColor" stroke-width="1" opacity="0.5">
    <polygon points="1400,0 1600,0 1600,180 1500,220 1400,120" />
    <polygon points="1500,220 1600,180 1600,420 1480,460" />
    <polygon points="1400,120 1500,220 1480,460 1350,420" />
    <polygon points="1350,420 1480,460 1440,700 1300,660" />
    <polygon points="1300,660 1440,700 1400,940 1260,900" />
  </g>

  <rect x="0" y="0" width="1600" height="1000" fill="url(#fade)" />
</svg>
